<?xml version="1.0" encoding="UTF-8"?>
<svg id="DESIGNED_BY_FREEPIK" data-name="DESIGNED BY FREEPIK" xmlns="http://www.w3.org/2000/svg" xmlns:xlink="http://www.w3.org/1999/xlink" viewBox="0 0 720 238">
  <defs>
    <style>
      .cls-1 {
        fill: url(#radial-gradient-4);
      }

      .cls-1, .cls-2, .cls-3, .cls-4, .cls-5, .cls-6, .cls-7, .cls-8, .cls-9, .cls-10, .cls-11, .cls-12 {
        fill-rule: evenodd;
      }

      .cls-2 {
        fill: url(#radial-gradient-9);
      }

      .cls-3 {
        fill: url(#radial-gradient-2);
      }

      .cls-4 {
        fill: url(#radial-gradient-10);
      }

      .cls-5 {
        fill: url(#radial-gradient-3);
      }

      .cls-6 {
        fill: url(#radial-gradient-11);
      }

      .cls-7 {
        fill: url(#radial-gradient-8);
      }

      .cls-8 {
        fill: url(#radial-gradient-7);
      }

      .cls-9 {
        fill: url(#radial-gradient);
      }

      .cls-10 {
        fill: url(#radial-gradient-6);
      }

      .cls-11 {
        fill: url(#radial-gradient-5);
      }

      .cls-12 {
        fill: url(#radial-gradient-12);
      }
    </style>
    <radialGradient id="radial-gradient" cx="122.89" cy="118.5" fx="122.89" fy="118.5" r="115.36" gradientUnits="userSpaceOnUse">
      <stop offset="0" stop-color="#214080"/>
      <stop offset="1" stop-color="#213473"/>
    </radialGradient>
    <radialGradient id="radial-gradient-2" cx="572.81" cy="169.86" fx="572.81" fy="169.86" r="49.6" xlink:href="#radial-gradient"/>
    <radialGradient id="radial-gradient-3" cx="112.97" cy="64.52" fx="112.97" fy="64.52" r="39.34" xlink:href="#radial-gradient"/>
    <radialGradient id="radial-gradient-4" cx="672.73" cy="169.36" fx="672.73" fy="169.36" r="38.95" xlink:href="#radial-gradient"/>
    <radialGradient id="radial-gradient-5" cx="353.47" cy="50.82" fx="353.47" fy="50.82" r="35.26" xlink:href="#radial-gradient"/>
    <radialGradient id="radial-gradient-6" cx="478.86" cy="168.7" fx="478.86" fy="168.7" r="35.41" xlink:href="#radial-gradient"/>
    <radialGradient id="radial-gradient-7" cx="443.97" cy="51.06" fx="443.97" fy="51.06" r="35.64" xlink:href="#radial-gradient"/>
    <radialGradient id="radial-gradient-8" cx="415.24" cy="170.16" fx="415.24" fy="170.16" r="33.33" xlink:href="#radial-gradient"/>
    <radialGradient id="radial-gradient-9" cx="680.56" cy="52.09" fx="680.56" fy="52.09" r="35.52" xlink:href="#radial-gradient"/>
    <radialGradient id="radial-gradient-10" cx="354.44" cy="169.88" fx="354.44" fy="169.88" r="33.88" xlink:href="#radial-gradient"/>
    <radialGradient id="radial-gradient-11" cx="592.3" cy="51.77" fx="592.3" fy="51.77" r="33.02" xlink:href="#radial-gradient"/>
    <radialGradient id="radial-gradient-12" cx="696.44" cy="198.76" fx="696.44" fy="198.76" r="8.57" xlink:href="#radial-gradient"/>
  </defs>
  <path class="cls-9" d="M166.2,53.81c-.4-1.47-.73-2.71-1.08-3.95-6.99-24.5-37.11-32.54-55.21-14.67-1.52,1.5-2.51,2.14-4.77,1.18-17.92-7.62-37.24.33-44.83,18.24-.11.26-.34.46-.78,1.02-6.64-2.08-13.47-2.43-20.36-.11-17.42,5.86-23.25,25.36-11.76,39.72,7.22,9.03,19.19,9.22,27.91,5.26,1.09-.5,2.17-3.04,1.81-4.17-.35-1.1-2.52-2.14-3.96-2.24-1.8-.13-3.66.82-5.53,1.12-8.22,1.33-13.91-1.53-16.87-8.38-3.58-8.31-1.78-16.41,4.73-21.27,9.81-7.34,24.84-5.17,34,5.08,8.88,9.94,11.42,22.07,11.33,34.93,0,1.09-1.55,2.73-2.72,3.15-9.07,3.31-15.75,9.15-20.24,17.73-.71,1.35-3.05,2.55-4.68,2.61-23.57.89-43.99-16.79-48.62-41.88-3.36-18.22,3.84-35.08,19.18-44.45,2.83-1.73,5.96-3.52,9.14-4.03,4.93-.78,7.54-3.31,10.16-7.44,10.45-16.4,26.26-21.22,44.48-17.81,7.75,1.45,14.1,1.02,21.48-2.15,18.5-7.93,36.01-4.61,51.55,8.15,3.03,2.49,5.89,3.9,10.07,3.91,24.54.07,45.58,17.15,52.94,42.23.81,2.75,2.55,5.48,4.52,7.6,7.78,8.36,11.78,18.37,13.2,29.45,1.65,12.84.75,25.38-6.21,36.8-4.55,7.48-10.7,13.11-19.29,15.53-2.32.65-2.87,1.64-2.7,3.98,1.31,18.03-5.63,31.44-22.32,39.32-.99.47-1.91,1.26-2.62,2.1-8.2,9.7-16.35,19.44-24.85,29.58-1.69-4.13-3.32-7.71-4.63-11.4-.89-2.52-2.38-3.51-5.05-3.9-13.42-1.97-25.22-7.16-33.81-18.15-1.77-2.26-3.16-4.81-5.1-7.81,5.78.91,10.73,1.97,15.74,2.43,11.56,1.06,22.51-.61,31.39-8.92,5.25-4.91,7.77-11.28,8.06-18.37.27-6.58-4.41-13.5-10.36-15.31-1.4-.42-3.29.75-4.96,1.19.45,1.63.35,3.94,1.42,4.8,8.33,6.71,8.23,16.79-.48,23.62-5.95,4.66-12.95,6.05-20.2,5.83-8.3-.26-16.56-1.12-24.12-5.2-1.05-.57-2.54-.4-3.82-.42-10.19-.15-20.05-1.85-29.21-6.51-7.41-3.77-13.52-9.2-15.77-17.33-4.27-15.37,1.66-35.64,21.59-39.83,3.8-.8,5.61-2.42,6.6-6.27,3.65-14.23,17.99-19.15,31.35-10.61,3.69,2.36,6.14,2.16,9.78.12,13.67-7.68,27.3-5.35,38.13,6.05.6.64,1.06,1.65,1.78,1.88,1.84.6,4.35,1.78,5.57,1.04,2.55-1.55,1.45-4-.26-5.95-6.23-7.07-13.47-12.47-23.03-14.11-1.14-.2-2.26-.51-3.38-.76-1.58-9.41,5.57-21.25,14.9-24.12,11-3.38,21.46-1.77,30.79,4.98,8.28,5.99,11.13,14.47,9.11,24.32-.78,3.81-.36,6.33,2.41,9.33,6.14,6.65,7.24,14.83,4.54,23.3-2.17,6.82-9.64,10.78-17.84,9.23-4.34-.82-8.72-2.48-12.59-4.65-12.1-6.78-24.87-9.41-38.35-6.17-4.94,1.19-9.54,4.08-14.06,6.62-4.42,2.49-8.33,5.95-12.86,8.19-5.77,2.85-9.19,1.52-12.48-3.93-1.41-2.33-2.98-4.42-5.84-2.73-2.9,1.7-1.72,4.17-.45,6.48,4.38,7.97,12.01,11.04,20.38,7.46,4.5-1.93,9.02-4.39,12.68-7.6,10.89-9.55,23.24-9.85,36.21-6.53,4.03,1.03,7.89,3.01,11.58,5.01,7.94,4.32,16.13,6.78,25.18,4.55,8.19-2.02,13.76-7.06,15.88-15.25,2.61-10.01.91-19.34-5.37-27.77-.93-1.25-1.8-3.15-1.58-4.58,3.48-22.99-12.82-35.54-29.1-38.27-5.63-.95-11.55-.15-17.52-.15Z"/>
  <path class="cls-3" d="M586.48,189.43c7.61-.66,15.23-1.22,22.82-2.04,2.73-.29,5.37-1.41,8.1-1.77,4.55-.6,6.19,3.51,8.58,6.05,2.32,2.47.04,4.72-1.74,6.25-2.06,1.76-4.48,3.92-6.96,4.23-11.35,1.42-22.77,2.93-34.18,3.07-7.86.1-10.77-3.81-12.42-11.52-1.38-6.44-.65-12.2,3.12-17.82,2.4-3.59,3.89-7.82,5.57-11.85.43-1.04.35-2.52-.02-3.62-.97-2.86-2.24-5.62-3.49-8.67-8.76-2.4-25.9-1.2-35.96,2.93,3.48,1.91,6.52,3.59,9.57,5.25.64.35,1.62.43,1.93.94,3.13,5.24,7.01,10.24,8.96,15.9,2.1,6.13-1.11,11.75-5.64,16.09-8.61,8.23-18.73,13.13-30.9,13.38-3.79.07-5.08-2.2-5.77-5.18-.32-1.39,0-2.92-.23-4.35-.73-4.51.98-5.72,5.6-6.17,9.29-.91,17.63-4.62,24.2-11.67,2.39-2.56,2.07-4.53-1.18-5.5-5.25-1.56-10.59-2.85-15.93-4.06-2.98-.67-6.1-.71-9.05-1.48-8.55-2.22-11.66-13.32-4.99-19.18,3.71-3.26,8.44-5.91,13.16-7.33,10.28-3.1,20.84-5.25,31.3-7.72,1.1-.26,2.32.03,3.48-.03,5.48-.27,9.64,1.74,11.73,7.01,1.12,2.82,2.27,3.16,5.46,2.24,13.84-4.02,27.82-8.01,42.37-7.61,2.96.08,7.06,3.1,8.42,5.86,1.67,3.38-1.9,5.99-5.01,7.55-1.8.9-3.79,1.51-5.75,1.98-7.34,1.74-14.75,3.22-22.03,5.16-1.52.4-2.62,2.36-3.92,3.6,1.52.67,2.99,1.61,4.58,1.95,1.37.29,3,.23,4.33-.22,7.19-2.42,11.62,2.38,16.24,6.3.57.48-.04,3.55-1.01,4.45-6.59,6.19-14.88,7.29-23.28,6.08-4.71-.68-6.65,1.3-8.29,4.85-.78,1.69-1.59,3.36-2.39,5.04.21.54.42,1.08.63,1.63Z"/>
  <path class="cls-5" d="M87.98,96.45c-1.64-10.5-4.27-19.73-10.47-27.45-2.26-2.82-4.79-5.59-7.71-7.66-2.82-2-2.82-3.89-1.67-6.63,4.15-9.87,12.62-12.72,22.17-13.6,5.63-.52,11.05.16,15.49,4.34,2.66,2.51,4.59,1.05,6.41-1.43,9.21-12.5,23.55-15.11,35.99-6.1,3.4,2.46,6.23,6.17,8.3,9.87,3.34,5.98,2.55,7.88-2.49,12.43-6.83,6.15-10.25,14.05-11.16,23.06-.24,2.39-.86,3.62-3.46,4.02-3.41.52-19.85.84-23.22.16-10.69-2.18-20.32-.65-28.2,8.99Z"/>
  <path class="cls-1" d="M698.8,147.18c1.91-4.37,3.06-8.66,5.46-12.08,2.8-3.98,4.35-3.14,7.07.73,3.59,5.13,2.15,10.3,1.31,15.53-1.02,6.33-2.21,12.63-3.51,18.91-.56,2.7-1.45,5.36-2.41,7.95-1.2,3.24-3.47,5.09-7.11,4.21-3.48-.84-5.84-2.7-5.06-6.78,1.19-6.24,2.46-12.46,3.61-18.71.47-2.52.7-5.07,1.08-7.92-8.48,2.94-16.44,1.41-24.37,1.47-5.21.04-10.4,2.08-15.61,3.23-.1.46-.2.93-.3,1.39,2.21,1,4.37,2.12,6.64,2.97,5.52,2.06,7.24,7.32,10.17,11.62,5.17,7.56,5.41,14.06-.61,21.06-8.37,9.73-19.2,14.83-32.12,15.47-3.87.19-5.62-1.72-6.21-5.16-.27-1.56-.24-3.18-.49-4.75-.65-4.12.88-5.35,5.19-5.72,9.34-.8,17.76-4.37,24.35-11.35,3.03-3.21,2.76-4.77-1.57-6.2-4.92-1.63-10.06-2.65-15.14-3.76-2.69-.59-5.78-.18-8.14-1.33-3.2-1.56-7.6-3.68-8.42-6.45-1.5-5.15-1.39-11.25,4.42-14.7,3.6-2.14,7.31-4.45,11.28-5.56,10.35-2.89,20.8-5.53,31.35-7.56,7.38-1.42,13.47.93,16.2,8.89.58,1.68,1.94,3.09,2.94,4.6Z"/>
  <path class="cls-11" d="M355.03,63.02c6.07-3.18,8.72-7.82,10.53-12.91,1.41-3.96,2.12-8.16,3.19-12.25,1.75-6.71,3.57-13.4,5.27-20.13.68-2.69,2.1-2.88,4.12-1.5,2.51,1.71,5.13,3.3,7.44,5.26,3.56,3.02,3.59,7.33,1.95,12.38-2.26,6.97-4.18,14.13-5.31,21.36-1.76,11.27-6.72,20.49-15.56,27.58-3.3,2.65-7.61,2.6-10.75-.65-4.78-4.96-9.03-10.44-13.99-16.27-1.91,4.18-4.66,8.84-6.16,13.88-1.12,3.75-3.34,6.42-6.51,6.47-2.12.03-5.11-2.65-6.27-4.87-2.1-4.04-3.17-8.63-4.56-13.02-.18-.58.16-1.43.46-2.06,8-16.67,16.02-33.33,24.22-50.36,5.49,1.63,10.14,4.3,13.36,9.09,2.78,4.14,1.44,8.44,0,12.54-2.84,8.08-1.85,16.25-1.42,25.45Z"/>
  <path class="cls-10" d="M468.15,134.18c2.3,1.03,4.29,1.64,5.98,2.71,9.33,5.9,10.27,9.92,7.42,18.82-2.24,6.99-2.71,18.88-.55,26.16,2.74-3.17,5.73-5.47,7.13-8.5,2.29-4.97,3.77-10.35,5.2-15.66,2.15-7.94,3.97-15.97,6.17-24.98,5.95,3.86,11.97,5.96,14.02,12.21.69,2.13-.65,4.98-1.25,7.45-1.65,6.86-3.96,13.61-4.98,20.56-1.69,11.42-6.48,20.86-15.46,28.09-3.4,2.73-7.61,2.85-10.73-.33-4.9-5.02-9.24-10.58-14.34-16.52-2.04,4.72-3.99,10.03-6.63,14.98-1.23,2.3-3.55,4.7-5.9,5.45-1.39.44-4.47-1.83-5.6-3.62-4.35-6.95-6.7-13.82-2.13-22.29,7.73-14.34,14.33-29.29,21.65-44.52Z"/>
  <path class="cls-8" d="M433.04,87.89c-8.89.1-15.96-2.8-20.6-10.47-5.08-8.4-2.62-16.72,1.24-24.58,5.17-10.52,13.74-18.26,22.65-25.59,1.9-1.56,3.74-3.2,5.67-4.71,3.56-2.79,6.93-5.99,10.89-8.03,1.65-.85,4.85.42,6.91,1.53,1.8.97,2.86,3.23,4.48,4.66,2.37,2.09,2.95,4.24,1.85,7.35-.59,1.66-.27,4.01.47,5.69,2.25,5.05,5.15,9.81,7.31,14.9,1.8,4.23,3.42,8.66,4.21,13.16,1.04,5.95-1.28,11.37-6.55,14.19-6.85,3.67-14.08,6.82-21.47,9.19-5.43,1.74-11.37,1.87-17.08,2.72ZM432.82,70.71c9.18-.67,18.13-2.14,26.17-7.15,4.37-2.72,5.3-5.51,2.87-10.13-1.42-2.7-2.93-5.35-4.28-8.08-2.48-5.03-7.31-6.74-12.03-3.6-8.32,5.56-15.23,12.56-19.54,21.75-2.02,4.3-.93,6.11,3.74,6.95,1,.18,2.03.18,3.06.26Z"/>
  <path class="cls-7" d="M399.38,188.8c10.92.62,20.81-.63,30.62-2.87,3.21-.73,7.91,2.21,9.8,5.81,2.07,3.93-1.21,5.57-3.23,7.47-1.53,1.44-3.68,2.82-5.7,3.05-11.09,1.29-22.21,2.99-33.33,3.04-8.76.05-11.33-3.56-13.15-12.19-1.3-6.18-.43-11.64,3.01-17.03,2.4-3.77,4.03-8.06,5.78-12.22.42-1,.09-2.45-.2-3.61-.98-3.91-2.43-7.74-3.07-11.7-.65-4.04,2.98-5.19,5.76-5.92,8.87-2.32,17.81-4.42,26.81-6.17,4.96-.97,10.2-1.87,15.12-1.25,3.16.4,7.22,2.97,8.62,5.71,1.68,3.32-1.83,6.05-4.97,7.58-2.07,1-4.33,1.71-6.57,2.25-7.19,1.72-14.45,3.17-21.6,5.04-1.45.38-2.54,2.17-3.79,3.31,1.46.76,2.84,1.88,4.39,2.18,1.66.33,3.61.29,5.2-.25,7.19-2.48,11.12,3,15.78,6.46.47.35-.24,3.52-1.25,4.47-6.22,5.78-14.05,7.34-21.99,6.02-6.12-1.02-8.37,1.97-10.28,6.51-.49,1.17-.95,2.35-1.75,4.32Z"/>
  <path class="cls-2" d="M684.71,77.27c7.15-2.75,7.46-3.37,6.81-7.55-1.72.08-3.54.03-5.31.29-2.59.38-5.12,1.18-7.72,1.48-6.61.75-8.1-.26-10.39-6.81-3.75,4.5-6.02,9.49-7.05,14.99-.87,4.58-4.2,6.74-8.05,7.24-3.84.5-5.85-2.47-7.35-6.04-1.19-2.84-.92-5.19.13-7.72,1.23-2.96,2.5-5.9,3.86-8.8,4.82-10.26,9.69-20.49,14.55-30.73,1.61-3.39,3.64-5.39,7.95-6.28,3.42-.7,6.62-4.48,8.99-7.59,2.17-2.85,3.66-3.48,7.33-2.67,6.69,1.48,9.24,5.01,9.78,11.62.52,6.49,2.24,12.89,3.52,19.32.42,2.13,1.42,2.99,4.07,3.37,3.32.48,6.36,2.88,10.41,4.88-2.31,2.56-3.79,5.08-5.98,6.41-3.07,1.86-3.44,3.82-2.82,7.15,1.33,7.18-2.48,13.74-9.04,16.65-4.71,2.1-7.72.71-9.82-4.02-.85-1.9-2.54-3.43-3.89-5.18ZM683.74,41.51c-.49-.14-.98-.28-1.47-.42-3.42,4.9-6.85,9.79-10.27,14.69.25.35.49.71.74,1.07,4.62-.49,9.25-.98,14.32-1.52-1.25-5.2-2.29-9.51-3.32-13.82Z"/>
  <path class="cls-4" d="M360.69,133.46c1.57,0,3.17-.17,4.72.03,14,1.75,24.21,19.28,18.43,32.22-1.26,2.81-4.18,5.23-6.89,6.98-8.51,5.5-18.43,6.97-28.13,8.92-6.45,1.29-6.31,1.25-6.88,7.73-.3,3.45-.99,6.92-1.95,10.26-1.46,5.06-4.89,7.17-10.07,6.74-2.97-.25-6.85-6.14-6.29-9.74.42-2.72,1.01-5.43,1.65-8.11.89-3.73,1.07-7.07-.75-10.9-3.09-6.5.51-15.19,6.8-19.67,1.34-.96,2.18-3.02,2.65-4.73,3.58-13.13,13.06-20.15,26.72-19.7ZM369.88,157.14c-.07-.62-.13-1.24-.2-1.86-4.74-3.17-9.94-3.72-15.58-2.65-4.66.88-6.37,4.21-7.32,8.17-.14.59,1.47,2.34,1.92,2.22,7.09-1.83,14.13-3.88,21.18-5.88Z"/>
  <path class="cls-6" d="M580.24,69.6c2.94-.3,4.91-.5,6.87-.69,6.5-.62,13.05-2.02,19.48-1.58,4.39.3,9.01,2.6,12.73,5.16,1.81,1.25,2.49,5.18,2.32,7.81-.08,1.23-3.3,2.96-5.26,3.2-3.54.43-7.23-.51-10.79-.13-6.19.66-12.38,1.63-18.47,2.95-6.19,1.34-12.87,3.7-17.89-1.19-5.84-5.67-7.67-13.48-5.26-21.45,3.19-10.58,6.99-20.96,10.51-31.44,1.58-4.69,3.19-9.38,4.6-14.12.75-2.55,2.05-3.1,4.54-2.38,13.41,3.9,13.95,6.05,8.75,18.31-3.8,8.96-6.96,18.2-10.27,27.36-.82,2.28-1.1,4.75-1.87,8.18Z"/>
  <path class="cls-12" d="M693.9,189.87c3.22,3,9.96-.61,10.72,6.2.51,4.55-3.36,10.01-7.19,11.26-3.28,1.07-5.61-.59-6.98-3.03-1.3-2.29-2.64-5.35-2.12-7.65.52-2.34,3.3-4.17,5.57-6.78Z"/>
</svg>